<!DOCTYPE svg PUBLIC "-//W3C//DTD SVG 20010904//EN" "http://www.w3.org/TR/2001/REC-SVG-20010904/DTD/svg10.dtd">
<svg version="1.0" xmlns="http://www.w3.org/2000/svg" width="51px" height="55px" viewBox="0 0 510 550" preserveAspectRatio="xMidYMid meet">
<g id="layer101" fill="#002b66" stroke="none">
 <path d="M0 275 l0 -275 255 0 255 0 0 275 0 275 -255 0 -255 0 0 -275z"/>
 </g>
<g id="layer102" fill="#005566" stroke="none">
 <path d="M0 275 l0 -275 255 0 255 0 0 275 0 275 -255 0 -255 0 0 -275z m405 135 c3 -5 4 -10 1 -10 -3 0 -8 5 -11 10 -3 6 -4 10 -1 10 3 0 8 -4 11 -10z m-90 -10 c3 -6 -1 -7 -9 -4 -18 7 -21 14 -7 14 6 0 13 -4 16 -10z m-105 -4 c0 -2 -7 -7 -16 -10 -8 -3 -12 -2 -9 4 6 10 25 14 25 6z m135 -6 c3 -5 4 -10 1 -10 -3 0 -8 5 -11 10 -3 6 -4 10 -1 10 3 0 8 -4 11 -10z m-56 -103 c8 -10 7 -14 -2 -14 -8 0 -14 6 -14 14 0 7 1 13 2 13 2 0 8 -6 14 -13z"/>
 </g>
<g id="layer103" fill="#002b99" stroke="none">
 <path d="M0 275 l0 -275 255 0 255 0 0 275 0 275 -255 0 -255 0 0 -275z m170 171 c0 -3 -5 -8 -12 -12 -7 -4 -8 -3 -4 4 7 12 16 16 16 8z m17 -23 c-4 -3 -10 -3 -14 0 -3 4 0 7 7 7 7 0 10 -3 7 -7z m-64 -18 c-3 -9 -8 -14 -10 -11 -3 3 -2 9 2 15 9 16 15 13 8 -4z m242 5 c3 -5 4 -10 1 -10 -3 0 -8 5 -11 10 -3 6 -4 10 -1 10 3 0 8 -4 11 -10z m40 0 c3 -5 4 -10 1 -10 -3 0 -8 5 -11 10 -3 6 -4 10 -1 10 3 0 8 -4 11 -10z m-171 -12 c-3 -5 -9 -6 -14 -3 -5 3 -16 -2 -24 -11 -9 -8 -16 -11 -16 -5 0 12 26 28 45 28 8 0 12 -4 9 -9z m37 -11 c-10 -9 -11 -8 -5 6 3 10 9 15 12 12 3 -3 0 -11 -7 -18z m44 12 c11 -16 1 -19 -13 -3 -7 8 -8 14 -3 14 5 0 13 -5 16 -11z m30 -9 c3 -5 4 -10 1 -10 -3 0 -8 5 -11 10 -3 6 -4 10 -1 10 3 0 8 -4 11 -10z m75 -4 c0 -3 -5 -8 -12 -12 -7 -4 -8 -3 -4 4 7 12 16 16 16 8z m-253 -33 c-4 -3 -10 -3 -14 0 -3 4 0 7 7 7 7 0 10 -3 7 -7z m-12 -23 c3 -5 4 -10 1 -10 -3 0 -8 5 -11 10 -3 6 -4 10 -1 10 3 0 8 -4 11 -10z m295 -4 c0 -2 -8 -10 -17 -17 -16 -13 -17 -12 -4 4 13 16 21 21 21 13z m-220 -61 c0 -5 -5 -3 -10 5 -5 8 -10 20 -10 25 0 6 5 3 10 -5 5 -8 10 -19 10 -25z m27 18 c0 -9 -4 -10 -14 -2 -7 6 -13 12 -13 14 0 1 6 2 13 2 8 0 14 -6 14 -14z m39 -19 c2 -12 0 -14 -9 -5 -6 6 -12 18 -13 27 -2 12 0 14 9 5 6 -6 12 -18 13 -27z m-196 -10 c0 -8 -19 -13 -24 -6 -3 5 1 9 9 9 8 0 15 -2 15 -3z m335 -4 c3 -5 4 -10 1 -10 -3 0 -8 5 -11 10 -3 6 -4 10 -1 10 3 0 8 -4 11 -10z m-178 -28 c15 -20 17 -29 8 -29 -8 0 -13 3 -12 6 1 3 -4 16 -11 29 -17 31 -10 28 15 -6z m-27 2 c0 -8 -19 -13 -24 -6 -3 5 1 9 9 9 8 0 15 -2 15 -3z m184 -59 c-21 -32 -51 -50 -51 -30 0 7 6 11 12 9 7 -3 20 6 29 20 9 15 19 26 21 26 3 0 -2 -11 -11 -25z m-284 11 c0 -3 -5 -8 -12 -12 -7 -4 -8 -3 -4 4 7 12 16 16 16 8z m67 -73 c-4 -3 -10 -3 -14 0 -3 4 0 7 7 7 7 0 10 -3 7 -7z"/>
 </g>
<g id="layer104" fill="#005599" stroke="none">
 <path d="M0 275 l0 -275 255 0 255 0 0 275 0 275 -255 0 -255 0 0 -275z m347 178 c-4 -3 -10 -3 -14 0 -3 4 0 7 7 7 7 0 10 -3 7 -7z m-177 -7 c0 -3 -5 -8 -12 -12 -7 -4 -8 -3 -4 4 7 12 16 16 16 8z m107 -3 c-4 -3 -10 -3 -14 0 -3 4 0 7 7 7 7 0 10 -3 7 -7z m-149 -33 c-7 -10 -14 -17 -17 -15 -4 4 18 35 25 35 2 0 -1 -9 -8 -20z m59 13 c-4 -3 -10 -3 -14 0 -3 4 0 7 7 7 7 0 10 -3 7 -7z m218 -13 c14 -16 16 -23 7 -32 -10 -10 -18 -6 -40 17 l-27 29 27 -23 c16 -14 31 -21 35 -17 5 4 -3 16 -16 27 -13 10 -19 19 -14 19 6 0 18 -9 28 -20z m-87 -18 c2 -8 -6 -12 -26 -10 -17 1 -28 6 -26 10 3 4 -4 8 -15 8 -13 0 -21 -7 -22 -17 -1 -16 -2 -17 -6 -1 -3 10 -10 15 -19 11 -13 -5 -13 -7 -2 -14 10 -7 9 -9 -4 -9 -10 0 -18 4 -18 10 0 29 128 41 138 12z m27 -2 c3 -5 4 -10 1 -10 -3 0 -8 5 -11 10 -3 6 -4 10 -1 10 3 0 8 -4 11 -10z m-98 -17 c-4 -3 -7 0 -7 7 0 7 3 10 7 7 3 -4 3 -10 0 -14z m-117 -7 c0 -3 -5 -8 -12 -12 -7 -4 -8 -3 -4 4 7 12 16 16 16 8z m37 -13 c-4 -3 -10 -3 -14 0 -3 4 0 7 7 7 7 0 10 -3 7 -7z m4 -31 c-7 -2 -18 1 -23 6 -8 8 -4 9 13 5 13 -4 18 -8 10 -11z m269 -7 c-10 -12 -10 -15 0 -15 8 0 11 -3 7 -6 -3 -3 -11 -3 -17 1 -8 5 -8 11 1 21 6 8 14 14 16 14 3 0 0 -7 -7 -15z m-343 -19 c0 -8 -6 -12 -15 -9 -11 5 -11 7 0 14 7 5 13 9 14 9 0 0 1 -6 1 -14z m134 -29 c7 -16 17 -34 23 -41 6 -6 20 -23 31 -36 l20 -25 -21 18 c-11 9 -24 14 -27 10 -4 -3 -7 1 -7 10 0 9 -5 19 -12 23 -8 5 -9 2 -5 -10 6 -14 4 -15 -16 -4 -19 10 -20 13 -4 16 23 5 22 27 -3 50 -15 14 -16 19 -6 19 8 0 20 -13 27 -30z m68 9 c14 -15 18 -24 10 -22 -23 3 -40 17 -34 27 4 5 -1 9 -10 9 -9 0 -13 -4 -10 -10 3 -5 2 -10 -3 -10 -6 0 -12 7 -16 15 -9 25 38 18 63 -9z m144 -23 c-3 -7 -9 -10 -14 -7 -14 8 -11 21 5 21 8 0 12 -6 9 -14z m-343 -5 c0 -4 -4 -8 -9 -8 -6 0 -12 4 -15 8 -3 5 1 9 9 9 8 0 15 -4 15 -9z m10 -42 c0 -3 -5 -8 -12 -12 -7 -4 -8 -3 -4 4 7 12 16 16 16 8z m327 -2 c-3 -3 -12 -4 -19 -1 -8 3 -5 6 6 6 11 1 17 -2 13 -5z m-23 -39 c-21 -32 -51 -50 -51 -30 0 7 6 11 12 9 7 -3 20 6 29 20 9 15 19 26 21 26 3 0 -2 -11 -11 -25z m-284 11 c0 -3 -5 -8 -12 -12 -7 -4 -8 -3 -4 4 7 12 16 16 16 8z m207 -58 c-3 -8 -6 -5 -6 6 -1 11 2 17 5 13 3 -3 4 -12 1 -19z m-140 -15 c-4 -3 -10 -3 -14 0 -3 4 0 7 7 7 7 0 10 -3 7 -7z"/>
 <path d="M288 393 c7 -3 16 -2 19 1 4 3 -2 6 -13 5 -11 0 -14 -3 -6 -6z"/>
 <path d="M285 270 c3 -5 8 -10 11 -10 3 0 2 5 -1 10 -3 6 -8 10 -11 10 -3 0 -2 -4 1 -10z"/>
 </g>
<g id="layer105" fill="#335599" stroke="none">
 <path d="M0 275 l0 -275 255 0 255 0 0 275 0 275 -255 0 -255 0 0 -275z m264 191 c-3 -8 2 -16 13 -19 10 -3 2 -5 -17 -6 -26 0 -31 2 -20 9 12 8 11 10 -7 10 -28 0 -53 -10 -53 -22 0 -5 10 -7 23 -3 12 3 4 -4 -18 -17 -22 -13 -50 -41 -62 -63 -25 -43 -32 -41 -9 3 8 15 23 36 35 46 29 27 26 41 -4 19 -31 -23 -74 -105 -57 -111 19 -6 14 -32 -5 -32 -15 0 -14 -4 6 -19 21 -16 22 -19 6 -25 -24 -9 -27 -3 -27 42 1 44 24 106 50 135 23 25 69 49 112 58 19 4 36 7 37 8 1 0 0 -5 -3 -13z m106 -26 c40 -29 70 -73 77 -115 4 -28 2 -35 -11 -35 -9 0 -16 4 -16 9 0 5 -3 18 -6 28 -5 15 -4 15 5 3 18 -25 23 -3 6 27 -9 15 -14 20 -11 11 8 -26 -2 -22 -29 11 -14 15 -39 36 -57 44 -19 10 -26 17 -16 17 9 0 20 -4 23 -10 3 -5 14 -10 23 -10 26 0 -6 26 -48 39 l-35 11 33 -5 c19 -3 47 -14 62 -25z m-35 -43 c17 -10 14 -12 -30 -18 -117 -17 -162 -4 -92 26 34 14 88 11 122 -8z m-158 -43 c-3 -3 -12 -4 -19 -1 -8 3 -5 6 6 6 11 1 17 -2 13 -5z m4 -32 c-13 -2 -27 0 -32 5 -6 6 3 7 23 4 28 -4 29 -6 9 -9z m46 1 c-4 -3 -10 -3 -14 0 -3 4 0 7 7 7 7 0 10 -3 7 -7z m73 -48 c25 -27 18 -31 -26 -15 -40 16 -41 5 -5 -45 l33 -46 -56 28 c-48 23 -53 29 -36 35 29 11 25 25 -12 48 l-33 20 56 0 c46 0 59 -4 79 -25z m152 -27 c-4 -23 -6 -25 -18 -13 -20 19 -17 41 4 41 14 0 17 -6 14 -28z m-341 -47 c-17 -11 -5 -32 14 -25 9 4 12 0 8 -14 -3 -14 1 -21 16 -25 12 -3 21 -10 21 -17 0 -18 -53 24 -73 58 -16 29 -16 31 0 34 24 6 31 -1 14 -11z m329 1 c0 -14 -54 -74 -79 -87 -27 -13 -29 -13 -34 5 -3 11 -1 20 4 20 5 0 9 -5 9 -11 0 -6 6 -9 13 -6 6 2 11 13 9 23 -2 15 -1 16 6 5 12 -17 35 -4 28 15 -3 8 1 14 9 14 18 0 19 12 4 27 -9 9 -7 10 10 6 11 -3 21 -8 21 -11z m-230 -87 c0 -8 -7 -15 -15 -15 -13 0 -14 3 -3 15 16 18 18 18 18 0z m50 -10 c0 -9 -9 -15 -22 -14 -17 1 -19 2 -5 6 9 2 17 9 17 14 0 5 2 9 5 9 3 0 5 -7 5 -15z m37 -7 c-3 -8 -6 -5 -6 6 -1 11 2 17 5 13 3 -3 4 -12 1 -19z"/>
 <path d="M370 410 c0 -5 9 -14 20 -20 22 -12 27 -1 8 18 -14 14 -28 16 -28 2z"/>
 </g>
<g id="layer106" fill="#338099" stroke="none">
 <path d="M0 275 l0 -275 255 0 255 0 0 275 0 275 -255 0 -255 0 0 -275z m315 194 c81 -21 154 -128 142 -208 -18 -112 -128 -194 -230 -171 -39 8 -61 20 -38 20 8 0 11 6 7 16 -3 8 -2 12 4 9 6 -3 10 -13 10 -21 0 -8 7 -14 15 -14 8 0 15 6 15 13 0 8 6 14 14 14 8 0 11 -8 8 -20 -4 -14 -1 -18 9 -15 8 3 13 13 13 22 -1 9 4 16 12 16 8 0 13 -3 11 -7 -1 -5 3 -8 8 -8 6 0 9 6 9 13 -2 15 13 16 18 0 2 -6 10 -8 17 -4 9 6 9 11 0 22 -13 16 2 19 18 3 8 -8 13 -7 19 2 4 7 3 14 -4 17 -7 2 -10 8 -7 12 3 5 12 7 20 3 8 -3 15 0 15 6 0 6 -4 11 -10 11 -5 0 -10 5 -10 10 0 6 7 10 16 8 10 -2 19 3 21 10 3 6 -2 12 -11 12 -11 0 -14 8 -10 33 8 52 -31 117 -88 145 -67 34 -118 24 -175 -33 -42 -41 -48 -60 -43 -123 1 -12 -5 -25 -14 -28 -9 -3 -13 -10 -10 -16 3 -5 12 -7 20 -4 16 6 19 -10 4 -19 -6 -4 -8 -11 -4 -16 4 -6 11 -6 19 1 9 8 15 8 20 0 3 -5 1 -10 -4 -10 -6 0 -11 -7 -11 -15 0 -17 16 -20 26 -4 12 20 27 -7 16 -27 -10 -17 -14 -15 -50 24 -78 84 -76 188 4 268 59 59 109 73 189 53z m10 -68 l40 -18 -87 -8 c-93 -8 -122 -2 -91 20 40 28 86 30 138 6z m-18 -38 c-4 -3 -10 -3 -14 0 -3 4 0 7 7 7 7 0 10 -3 7 -7z m-69 -16 c-23 -5 -48 -5 -65 0 -23 8 -16 10 37 9 60 0 62 -1 28 -9z m-9 -23 c2 -2 -16 -4 -42 -4 -25 0 -48 4 -51 9 -5 8 84 3 93 -5z m76 -54 c33 -34 32 -35 -24 -15 -22 8 -41 12 -41 9 0 -2 14 -23 30 -46 17 -23 28 -43 26 -45 -2 -2 -27 9 -56 24 -45 23 -49 28 -31 35 26 9 18 33 -18 53 -25 14 -24 14 30 15 49 0 59 -4 84 -30z"/>
 <path d="M198 453 c-10 -2 -18 -9 -18 -14 0 -6 5 -7 11 -4 6 4 23 11 37 15 19 6 21 8 7 8 -11 0 -28 -2 -37 -5z"/>
 <path d="M297 450 c18 -4 40 -13 48 -20 8 -7 15 -8 15 -3 0 13 -46 33 -73 32 -15 -1 -12 -3 10 -9z"/>
 <path d="M132 407 c-20 -22 -57 -97 -47 -97 2 0 14 18 25 40 12 23 30 50 40 60 11 11 16 20 12 20 -5 0 -18 -10 -30 -23z"/>
 <path d="M380 411 c0 -6 4 -13 10 -16 6 -3 7 1 4 9 -7 18 -14 21 -14 7z"/>
 <path d="M420 340 c0 -7 3 -10 7 -7 3 4 3 10 0 14 -4 3 -7 0 -7 -7z"/>
 <path d="M430 279 c0 -5 5 -7 10 -4 6 3 10 8 10 11 0 2 -4 4 -10 4 -5 0 -10 -5 -10 -11z"/>
 <path d="M80 270 c0 -5 5 -10 10 -10 6 0 10 5 10 10 0 6 -4 10 -10 10 -5 0 -10 -4 -10 -10z"/>
 </g>
<g id="layer107" fill="#3355cc" stroke="none">
 <path d="M0 275 l0 -275 255 0 255 0 0 275 0 275 -255 0 -255 0 0 -275z m321 194 c71 -24 138 -115 139 -188 0 -47 -35 -115 -77 -150 -82 -68 -182 -62 -259 14 -81 82 -80 189 3 272 57 58 123 75 194 52z"/>
 <path d="M213 453 c4 -3 10 -3 14 0 3 4 0 7 -7 7 -7 0 -10 -3 -7 -7z"/>
 <path d="M288 453 c7 -3 16 -2 19 1 4 3 -2 6 -13 5 -11 0 -14 -3 -6 -6z"/>
 <path d="M184 438 c-4 -7 -3 -8 4 -4 7 4 12 9 12 12 0 8 -9 4 -16 -8z"/>
 <path d="M214 429 c-18 -5 -48 -27 -68 -49 -32 -36 -36 -46 -36 -95 0 -43 -3 -55 -16 -55 -8 0 -12 -5 -9 -11 4 -6 13 -8 21 -5 7 3 18 -4 24 -15 6 -11 28 -32 49 -47 21 -15 36 -33 33 -40 -2 -6 3 -12 12 -12 10 0 13 6 10 15 -5 12 3 15 35 15 23 0 40 -3 38 -7 -1 -5 3 -8 8 -8 5 0 9 3 7 8 -5 15 63 66 81 61 19 -6 24 12 5 19 -10 4 -10 7 0 18 9 10 12 10 12 0 0 -7 5 -9 10 -6 14 9 12 25 -2 25 -8 0 -13 16 -14 44 -1 59 -36 113 -88 137 -45 20 -65 22 -112 8z m111 -28 l40 -19 -35 -1 c-50 -2 -85 -12 -70 -21 17 -10 -63 -24 -90 -15 -31 10 -24 25 9 15 15 -4 35 -4 42 1 10 6 4 9 -18 9 -38 0 -43 12 -10 28 55 27 80 27 132 3z m-2 -38 c-7 -2 -21 -2 -30 0 -10 3 -4 5 12 5 17 0 24 -2 18 -5z m-88 -38 c6 -2 -13 -4 -42 -4 -28 -1 -54 3 -57 8 -5 8 74 5 99 -4z m32 8 c-4 -3 -10 -3 -14 0 -3 4 0 7 7 7 7 0 10 -3 7 -7z m38 -61 c31 -37 31 -37 -24 -17 -22 8 -41 12 -41 8 0 -3 13 -22 28 -42 48 -61 46 -63 -23 -29 -53 26 -62 34 -45 38 12 3 21 8 21 13 -1 4 -1 12 -1 17 0 6 -11 15 -25 20 -41 15 -29 25 29 25 48 -1 57 -4 81 -33z"/>
 <path d="M125 400 c-10 -11 -16 -22 -14 -24 2 -2 12 7 22 20 22 29 17 32 -8 4z"/>
 <path d="M95 349 c-4 -6 -5 -12 -2 -15 2 -3 7 2 10 11 7 17 1 20 -8 4z"/>
 <path d="M420 340 c0 -7 3 -10 7 -7 3 4 3 10 0 14 -4 3 -7 0 -7 -7z"/>
 <path d="M430 280 c0 -7 3 -10 7 -7 3 4 3 10 0 14 -4 3 -7 0 -7 -7z"/>
 <path d="M80 269 c0 -5 5 -7 10 -4 6 3 10 8 10 11 0 2 -4 4 -10 4 -5 0 -10 -5 -10 -11z"/>
 <path d="M106 191 c-4 -5 -2 -12 3 -15 5 -4 12 -2 15 3 4 5 2 12 -3 15 -5 4 -12 2 -15 -3z"/>
 <path d="M130 155 c0 -9 5 -15 11 -13 6 2 11 8 11 13 0 5 -5 11 -11 13 -6 2 -11 -4 -11 -13z"/>
 <path d="M372 159 c2 -6 8 -10 13 -10 5 0 11 4 13 10 2 6 -4 11 -13 11 -9 0 -15 -5 -13 -11z"/>
 <path d="M345 139 c-10 -15 3 -25 16 -12 7 7 7 13 1 17 -6 3 -14 1 -17 -5z"/>
 <path d="M176 133 c-11 -11 -6 -23 9 -23 8 0 15 4 15 9 0 13 -16 22 -24 14z"/>
 <path d="M265 111 c-6 -11 9 -23 19 -14 9 9 7 23 -3 23 -6 0 -12 -4 -16 -9z"/>
 </g>
<g id="layer108" fill="#668099" stroke="none">
 <path d="M0 275 l0 -275 255 0 255 0 0 275 0 275 -255 0 -255 0 0 -275z m321 194 c72 -24 139 -115 139 -189 0 -81 -70 -166 -156 -190 -63 -18 -126 1 -180 55 -81 82 -80 189 3 272 57 58 123 75 194 52z"/>
 <path d="M213 453 c4 -3 10 -3 14 0 3 4 0 7 -7 7 -7 0 -10 -3 -7 -7z"/>
 <path d="M288 453 c7 -3 16 -2 19 1 4 3 -2 6 -13 5 -11 0 -14 -3 -6 -6z"/>
 <path d="M184 438 c-4 -7 -3 -8 4 -4 7 4 12 9 12 12 0 8 -9 4 -16 -8z"/>
 <path d="M214 429 c-18 -5 -48 -27 -68 -49 -32 -36 -36 -46 -36 -95 0 -43 -3 -55 -16 -55 -8 0 -12 -5 -9 -11 4 -6 13 -8 21 -5 7 3 18 -4 24 -15 6 -11 28 -32 49 -47 21 -15 36 -33 33 -40 -2 -6 3 -12 12 -12 10 0 13 6 10 15 -5 12 3 15 35 15 23 0 40 -3 38 -7 -1 -5 3 -8 8 -8 5 0 9 3 7 8 -5 15 63 66 81 61 19 -6 24 12 5 19 -10 4 -10 7 0 18 9 10 12 10 12 0 0 -7 5 -9 10 -6 14 9 12 25 -2 25 -8 0 -13 16 -14 44 -1 59 -36 113 -88 137 -45 20 -65 22 -112 8z m111 -28 l40 -19 -35 -1 c-50 -2 -85 -12 -70 -21 17 -10 -63 -24 -90 -15 -32 10 -23 25 10 15 18 -5 32 -5 35 1 4 5 -5 9 -19 9 -32 0 -33 13 -3 28 55 27 80 27 132 3z m-2 -38 c-7 -2 -21 -2 -30 0 -10 3 -4 5 12 5 17 0 24 -2 18 -5z m-88 -38 c6 -2 -13 -4 -42 -4 -28 -1 -54 3 -57 8 -5 8 74 5 99 -4z m32 8 c-4 -3 -10 -3 -14 0 -3 4 0 7 7 7 7 0 10 -3 7 -7z m38 -61 c31 -37 31 -37 -24 -17 -22 8 -41 12 -41 8 0 -3 13 -22 28 -42 48 -61 46 -63 -23 -29 -53 26 -62 34 -45 38 12 3 21 8 21 13 -1 4 -1 12 -1 17 0 6 -11 15 -25 20 -41 15 -29 25 29 25 48 -1 57 -4 81 -33z"/>
 <path d="M125 400 c-10 -11 -16 -22 -14 -24 2 -2 12 7 22 20 22 29 17 32 -8 4z"/>
 <path d="M95 349 c-4 -6 -5 -12 -2 -15 2 -3 7 2 10 11 7 17 1 20 -8 4z"/>
 <path d="M420 340 c0 -7 3 -10 7 -7 3 4 3 10 0 14 -4 3 -7 0 -7 -7z"/>
 <path d="M430 280 c0 -7 3 -10 7 -7 3 4 3 10 0 14 -4 3 -7 0 -7 -7z"/>
 <path d="M80 269 c0 -5 5 -7 10 -4 6 3 10 8 10 11 0 2 -4 4 -10 4 -5 0 -10 -5 -10 -11z"/>
 <path d="M106 191 c-4 -5 -2 -12 3 -15 5 -4 12 -2 15 3 4 5 2 12 -3 15 -5 4 -12 2 -15 -3z"/>
 <path d="M130 155 c0 -9 5 -15 11 -13 6 2 11 8 11 13 0 5 -5 11 -11 13 -6 2 -11 -4 -11 -13z"/>
 <path d="M372 159 c2 -6 8 -10 13 -10 5 0 11 4 13 10 2 6 -4 11 -13 11 -9 0 -15 -5 -13 -11z"/>
 <path d="M345 139 c-10 -15 3 -25 16 -12 7 7 7 13 1 17 -6 3 -14 1 -17 -5z"/>
 <path d="M176 133 c-11 -11 -6 -23 9 -23 8 0 15 4 15 9 0 13 -16 22 -24 14z"/>
 <path d="M265 111 c-6 -11 9 -23 19 -14 9 9 7 23 -3 23 -6 0 -12 -4 -16 -9z"/>
 </g>
<g id="layer109" fill="#3380cc" stroke="none">
 <path d="M0 275 l0 -275 255 0 255 0 0 275 0 275 -255 0 -255 0 0 -275z m328 192 c69 -26 132 -114 132 -187 0 -82 -68 -166 -154 -190 -128 -36 -263 89 -241 222 14 82 115 169 194 167 20 0 51 -6 69 -12z"/>
 <path d="M213 453 c4 -3 10 -3 14 0 3 4 0 7 -7 7 -7 0 -10 -3 -7 -7z"/>
 <path d="M216 430 c-124 -38 -143 -215 -31 -281 21 -13 32 -26 28 -35 -3 -8 0 -14 6 -14 6 0 11 7 11 15 0 11 11 15 40 15 22 0 39 -3 37 -7 -1 -5 2 -10 8 -13 5 -3 10 2 10 11 0 25 60 70 82 62 15 -6 16 -4 6 8 -8 10 -10 25 -4 45 18 66 -16 160 -54 148 -11 -4 -23 -11 -26 -17 -4 -5 -18 -8 -33 -5 -14 3 -23 2 -21 -3 6 -9 -73 -23 -100 -17 -30 5 -28 25 2 23 16 -1 20 0 11 2 -27 7 -22 19 16 37 42 20 67 20 113 1 41 -17 43 -18 43 -7 0 24 -99 46 -144 32z m39 -102 c-41 -11 -105 -12 -115 -2 -5 5 24 9 68 10 58 0 69 -2 47 -8z m49 -53 c14 -16 24 -31 22 -32 -2 -2 -22 3 -44 11 -23 9 -42 13 -42 9 0 -3 13 -22 28 -42 48 -61 46 -63 -23 -29 -49 24 -61 34 -46 36 29 5 27 40 -3 52 -45 17 -36 27 24 26 52 -1 61 -4 84 -31z"/>
 <path d="M124 398 l-19 -23 23 19 c21 18 27 26 19 26 -2 0 -12 -10 -23 -22z"/>
 <path d="M298 373 c7 -3 16 -2 19 1 4 3 -2 6 -13 5 -11 0 -14 -3 -6 -6z"/>
 <path d="M430 280 c0 -7 3 -10 7 -7 3 4 3 10 0 14 -4 3 -7 0 -7 -7z"/>
 <path d="M80 269 c0 -5 5 -7 10 -4 6 3 10 8 10 11 0 2 -4 4 -10 4 -5 0 -10 -5 -10 -11z"/>
 <path d="M420 224 c0 -8 5 -12 10 -9 6 4 8 11 5 16 -9 14 -15 11 -15 -7z"/>
 <path d="M90 220 c0 -5 5 -10 10 -10 6 0 10 5 10 10 0 6 -4 10 -10 10 -5 0 -10 -4 -10 -10z"/>
 <path d="M113 185 c0 -8 4 -12 9 -9 5 3 6 10 3 15 -9 13 -12 11 -12 -6z"/>
 <path d="M135 159 c-10 -15 3 -25 16 -12 7 7 7 13 1 17 -6 3 -14 1 -17 -5z"/>
 <path d="M375 161 c-6 -11 9 -23 19 -14 9 9 7 23 -3 23 -6 0 -12 -4 -16 -9z"/>
 <path d="M345 139 c-10 -15 3 -25 16 -12 7 7 7 13 1 17 -6 3 -14 1 -17 -5z"/>
 <path d="M176 131 c-4 -5 -2 -12 3 -15 5 -4 12 -2 15 3 4 5 2 12 -3 15 -5 4 -12 2 -15 -3z"/>
 <path d="M270 104 c0 -8 5 -12 10 -9 6 3 10 10 10 16 0 5 -4 9 -10 9 -5 0 -10 -7 -10 -16z"/>
 </g>
<g id="layer110" fill="#66aa99" stroke="none">
 <path d="M0 275 l0 -275 255 0 255 0 0 275 0 275 -255 0 -255 0 0 -275z m328 192 c69 -26 132 -114 132 -187 0 -82 -68 -166 -154 -190 -128 -36 -263 89 -241 222 14 82 115 169 194 167 20 0 51 -6 69 -12z"/>
 <path d="M213 453 c4 -3 10 -3 14 0 3 4 0 7 -7 7 -7 0 -10 -3 -7 -7z"/>
 <path d="M216 430 c-124 -38 -143 -215 -31 -281 21 -13 32 -26 28 -35 -3 -8 0 -14 6 -14 6 0 11 7 11 15 0 11 11 15 40 15 30 0 40 -4 40 -16 0 -8 4 -13 10 -9 5 3 7 11 4 18 -7 19 61 68 83 60 15 -6 16 -4 6 8 -8 10 -10 25 -4 45 18 66 -16 160 -54 148 -11 -4 -22 -10 -25 -14 -8 -10 -123 -32 -150 -28 -34 5 -37 26 -3 22 15 -2 20 -1 11 2 -27 8 -22 20 16 38 42 20 67 20 113 1 41 -17 43 -18 43 -7 0 24 -99 46 -144 32z m19 -106 c-50 -12 -46 -18 9 -15 23 1 37 -7 58 -31 15 -18 26 -34 24 -35 -2 -2 -22 3 -44 11 -23 9 -42 13 -42 9 0 -3 13 -22 28 -42 48 -61 46 -63 -23 -29 -49 24 -61 34 -46 36 26 4 28 40 4 49 -33 12 -45 25 -31 34 9 6 6 9 -9 9 -12 0 -24 3 -26 8 -3 4 29 7 71 7 l77 1 -50 -12z"/>
 <path d="M124 398 l-19 -23 23 19 c21 18 27 26 19 26 -2 0 -12 -10 -23 -22z"/>
 <path d="M298 373 c7 -3 16 -2 19 1 4 3 -2 6 -13 5 -11 0 -14 -3 -6 -6z"/>
 <path d="M430 280 c0 -7 3 -10 7 -7 3 4 3 10 0 14 -4 3 -7 0 -7 -7z"/>
 <path d="M80 269 c0 -5 5 -7 10 -4 6 3 10 8 10 11 0 2 -4 4 -10 4 -5 0 -10 -5 -10 -11z"/>
 <path d="M420 224 c0 -8 5 -12 10 -9 6 4 8 11 5 16 -9 14 -15 11 -15 -7z"/>
 <path d="M90 220 c0 -5 5 -10 10 -10 6 0 10 5 10 10 0 6 -4 10 -10 10 -5 0 -10 -4 -10 -10z"/>
 <path d="M113 185 c0 -8 4 -12 9 -9 5 3 6 10 3 15 -9 13 -12 11 -12 -6z"/>
 <path d="M135 159 c-10 -15 3 -25 16 -12 7 7 7 13 1 17 -6 3 -14 1 -17 -5z"/>
 <path d="M375 161 c-6 -11 9 -23 19 -14 9 9 7 23 -3 23 -6 0 -12 -4 -16 -9z"/>
 <path d="M346 141 c-4 -7 -5 -15 -2 -18 9 -9 19 4 14 18 -4 11 -6 11 -12 0z"/>
 <path d="M176 131 c-4 -5 -2 -12 3 -15 5 -4 12 -2 15 3 4 5 2 12 -3 15 -5 4 -12 2 -15 -3z"/>
 <path d="M270 104 c0 -8 5 -12 10 -9 6 3 10 10 10 16 0 5 -4 9 -10 9 -5 0 -10 -7 -10 -16z"/>
 </g>
<g id="layer111" fill="#6680cc" stroke="none">
 <path d="M0 275 l0 -275 255 0 255 0 0 275 0 275 -255 0 -255 0 0 -275z m328 192 c69 -26 132 -114 132 -187 0 -82 -68 -166 -154 -190 -143 -40 -289 119 -233 253 45 105 156 159 255 124z"/>
 <path d="M216 429 c-123 -34 -143 -214 -31 -280 21 -13 32 -26 28 -35 -3 -8 0 -14 6 -14 6 0 11 7 11 15 0 11 11 15 40 15 22 0 40 -4 40 -10 0 -5 4 -10 10 -10 5 0 7 6 5 13 -7 17 62 70 83 63 16 -6 16 -5 0 7 -12 9 -14 17 -7 24 16 16 13 97 -6 137 -14 30 -21 35 -39 30 -11 -4 -23 -10 -26 -14 -8 -10 -123 -32 -150 -28 -13 1 -25 8 -27 15 -3 7 4 10 19 6 18 -4 20 -3 8 6 -35 24 71 63 119 44 14 -6 34 -14 44 -18 9 -4 17 -3 17 3 0 24 -95 45 -144 31z m19 -105 c-50 -12 -46 -18 9 -15 22 1 37 -7 58 -30 33 -36 32 -44 -6 -29 -53 20 -60 13 -29 -27 49 -63 47 -65 -22 -31 -49 24 -61 34 -46 36 26 4 28 40 4 49 -33 12 -45 25 -31 34 9 6 6 9 -9 9 -12 0 -24 3 -26 8 -3 4 29 7 71 7 l77 1 -50 -12z"/>
 <path d="M124 398 l-19 -23 23 19 c21 18 27 26 19 26 -2 0 -12 -10 -23 -22z"/>
 <path d="M298 373 c7 -3 16 -2 19 1 4 3 -2 6 -13 5 -11 0 -14 -3 -6 -6z"/>
 <path d="M430 280 c0 -7 3 -10 7 -7 3 4 3 10 0 14 -4 3 -7 0 -7 -7z"/>
 <path d="M80 269 c0 -5 5 -7 10 -4 6 3 10 8 10 11 0 2 -4 4 -10 4 -5 0 -10 -5 -10 -11z"/>
 <path d="M420 224 c0 -8 5 -12 10 -9 6 4 8 11 5 16 -9 14 -15 11 -15 -7z"/>
 <path d="M90 220 c0 -5 5 -10 10 -10 6 0 10 5 10 10 0 6 -4 10 -10 10 -5 0 -10 -4 -10 -10z"/>
 <path d="M113 185 c0 -8 4 -12 9 -9 5 3 6 10 3 15 -9 13 -12 11 -12 -6z"/>
 <path d="M136 161 c-4 -5 -2 -12 3 -15 5 -4 12 -2 15 3 4 5 2 12 -3 15 -5 4 -12 2 -15 -3z"/>
 <path d="M375 161 c-6 -11 9 -23 19 -14 9 9 7 23 -3 23 -6 0 -12 -4 -16 -9z"/>
 <path d="M346 141 c-4 -7 -5 -15 -2 -18 9 -9 19 4 14 18 -4 11 -6 11 -12 0z"/>
 <path d="M176 131 c-4 -5 -2 -12 3 -15 5 -4 12 -2 15 3 4 5 2 12 -3 15 -5 4 -12 2 -15 -3z"/>
 <path d="M270 104 c0 -8 5 -12 10 -9 6 3 10 10 10 16 0 5 -4 9 -10 9 -5 0 -10 -7 -10 -16z"/>
 </g>
<g id="layer112" fill="#66aacc" stroke="none">
 <path d="M0 275 l0 -275 255 0 255 0 0 275 0 275 -255 0 -255 0 0 -275z m325 192 c75 -29 135 -109 135 -178 -1 -107 -99 -209 -201 -209 -40 0 -111 34 -143 70 -56 62 -69 135 -37 205 46 99 153 148 246 112z"/>
 <path d="M235 432 c-16 -2 -45 -15 -63 -28 -119 -91 -59 -274 91 -274 26 0 47 -4 47 -10 0 -5 4 -10 10 -10 5 0 7 6 4 14 -3 8 3 19 15 25 62 34 89 135 55 207 -17 36 -19 37 -49 24 l-20 -9 20 -2 c11 -1 -2 -5 -30 -10 -27 -5 -75 -13 -105 -18 l-55 -10 55 4 c30 2 64 7 75 11 11 4 17 4 13 -1 -4 -4 -31 -13 -60 -21 l-53 -12 45 -1 c33 -1 51 -7 66 -24 34 -36 39 -50 18 -44 -11 4 -32 9 -49 13 l-29 7 30 -39 c50 -64 49 -66 -21 -32 -49 24 -61 34 -46 36 12 2 21 7 21 12 0 19 -13 40 -25 40 -20 0 -39 27 -23 33 7 3 3 6 -9 6 -21 1 -44 21 -24 21 6 0 10 6 9 13 -2 7 6 11 22 10 14 -1 19 0 13 3 -22 10 -14 25 22 40 44 18 82 18 119 -1 32 -17 44 -14 22 5 -20 16 -73 26 -111 22z"/>
 <path d="M134 408 c-4 -7 -3 -8 4 -4 12 7 16 16 8 16 -3 0 -8 -5 -12 -12z"/>
 <path d="M293 373 c4 -3 10 -3 14 0 3 4 0 7 -7 7 -7 0 -10 -3 -7 -7z"/>
 <path d="M430 280 c0 -7 3 -10 7 -7 3 4 3 10 0 14 -4 3 -7 0 -7 -7z"/>
 <path d="M90 220 c0 -5 5 -10 10 -10 6 0 10 5 10 10 0 6 -4 10 -10 10 -5 0 -10 -4 -10 -10z"/>
 <path d="M420 219 c0 -5 5 -7 10 -4 6 3 10 8 10 11 0 2 -4 4 -10 4 -5 0 -10 -5 -10 -11z"/>
 <path d="M375 160 c-3 -5 -1 -10 4 -10 6 0 11 5 11 10 0 6 -2 10 -4 10 -3 0 -8 -4 -11 -10z"/>
 <path d="M135 150 c3 -5 8 -10 11 -10 2 0 4 5 4 10 0 6 -5 10 -11 10 -5 0 -7 -4 -4 -10z"/>
 <path d="M176 131 c-4 -5 -2 -12 3 -15 5 -4 12 -2 15 3 4 5 2 12 -3 15 -5 4 -12 2 -15 -3z"/>
 <path d="M340 130 c0 -5 5 -10 10 -10 6 0 10 5 10 10 0 6 -4 10 -10 10 -5 0 -10 -4 -10 -10z"/>
 <path d="M210 110 c0 -5 5 -10 10 -10 6 0 10 5 10 10 0 6 -4 10 -10 10 -5 0 -10 -4 -10 -10z"/>
 <path d="M270 104 c0 -8 5 -12 10 -9 6 3 10 10 10 16 0 5 -4 9 -10 9 -5 0 -10 -7 -10 -16z"/>
 </g>
<g id="layer113" fill="#99aacc" stroke="none">
 <path d="M0 275 l0 -275 255 0 255 0 0 275 0 275 -255 0 -255 0 0 -275z m321 193 c75 -22 139 -107 139 -182 -1 -80 -48 -151 -125 -187 -68 -32 -141 -19 -202 34 -111 98 -89 255 47 327 41 22 87 25 141 8z"/>
 <path d="M233 429 c-177 -37 -155 -299 25 -299 56 0 95 21 127 67 75 111 -23 260 -152 232z m94 -24 c20 -8 33 -18 30 -22 -4 -3 -2 -12 3 -18 8 -10 0 -12 -37 -9 -31 2 -41 0 -28 -5 15 -6 7 -11 -40 -23 l-60 -16 42 -1 c33 -1 46 -7 68 -32 14 -17 24 -33 22 -35 -2 -2 -19 1 -38 6 -52 15 -53 13 -13 -35 20 -25 35 -47 33 -49 -2 -2 -33 11 -69 30 -36 18 -57 33 -48 34 37 1 32 47 -5 52 -12 2 -22 10 -22 18 0 8 -8 18 -18 22 -27 11 -5 48 25 42 13 -2 17 -2 11 2 -20 9 -15 22 15 38 35 20 83 20 129 1z"/>
 <path d="M183 333 c9 -2 25 -2 35 0 9 3 1 5 -18 5 -19 0 -27 -2 -17 -5z"/>
 <path d="M430 280 c0 -7 3 -10 7 -7 3 4 3 10 0 14 -4 3 -7 0 -7 -7z"/>
 <path d="M90 220 c0 -5 5 -10 10 -10 6 0 10 5 10 10 0 6 -4 10 -10 10 -5 0 -10 -4 -10 -10z"/>
 <path d="M423 223 c4 -3 10 -3 14 0 3 4 0 7 -7 7 -7 0 -10 -3 -7 -7z"/>
 <path d="M375 160 c-3 -5 -1 -10 4 -10 6 0 11 5 11 10 0 6 -2 10 -4 10 -3 0 -8 -4 -11 -10z"/>
 <path d="M135 150 c3 -5 8 -10 11 -10 2 0 4 5 4 10 0 6 -5 10 -11 10 -5 0 -7 -4 -4 -10z"/>
 <path d="M340 130 c0 -5 5 -10 10 -10 6 0 10 5 10 10 0 6 -4 10 -10 10 -5 0 -10 -4 -10 -10z"/>
 <path d="M180 119 c0 -5 5 -7 10 -4 6 3 10 8 10 11 0 2 -4 4 -10 4 -5 0 -10 -5 -10 -11z"/>
 <path d="M210 110 c0 -5 5 -10 10 -10 6 0 10 5 10 10 0 6 -4 10 -10 10 -5 0 -10 -4 -10 -10z"/>
 <path d="M270 110 c0 -5 5 -10 11 -10 5 0 7 5 4 10 -3 6 -8 10 -11 10 -2 0 -4 -4 -4 -10z"/>
 </g>
<g id="layer114" fill="#99d5cc" stroke="none">
 <path d="M0 275 l0 -275 255 0 255 0 0 275 0 275 -255 0 -255 0 0 -275z m362 178 c18 -10 48 -40 66 -67 131 -195 -147 -415 -308 -243 -68 71 -76 159 -24 244 41 65 100 95 176 89 32 -2 73 -13 90 -23z"/>
 <path d="M179 407 c-98 -65 -88 -212 18 -259 54 -24 108 -20 151 11 57 40 79 130 47 191 -16 30 -60 70 -79 70 -6 0 4 -9 22 -20 34 -21 44 -53 15 -49 -10 1 -27 -1 -38 -5 -38 -15 -70 -25 -90 -29 -11 -3 -2 -5 20 -6 31 -2 45 -9 64 -32 28 -36 21 -47 -21 -31 -18 6 -33 10 -35 8 -2 -2 12 -24 32 -50 19 -25 31 -46 26 -46 -13 0 -151 71 -151 77 0 3 9 3 19 0 46 -12 51 26 5 43 -13 5 -24 16 -24 25 0 8 -7 15 -15 15 -24 0 -18 18 19 55 33 32 47 39 106 48 15 3 9 5 -16 6 -28 1 -52 -6 -75 -22z"/>
 <path d="M90 220 c0 -7 3 -10 7 -7 3 4 3 10 0 14 -4 3 -7 0 -7 -7z"/>
 <path d="M380 160 c0 -7 3 -10 7 -7 3 4 3 10 0 14 -4 3 -7 0 -7 -7z"/>
 <path d="M133 153 c4 -3 10 -3 14 0 3 4 0 7 -7 7 -7 0 -10 -3 -7 -7z"/>
 <path d="M220 110 c0 -7 3 -10 7 -7 3 4 3 10 0 14 -4 3 -7 0 -7 -7z"/>
 </g>
<g id="layer115" fill="#ccd5cc" stroke="none">
 <path d="M0 275 l0 -275 255 0 255 0 0 275 0 275 -255 0 -255 0 0 -275z m322 195 c82 -23 138 -101 138 -193 0 -140 -158 -239 -280 -177 -97 49 -141 147 -108 241 36 107 139 159 250 129z"/>
 <path d="M243 423 c9 -2 25 -2 35 0 9 3 1 5 -18 5 -19 0 -27 -2 -17 -5z"/>
 <path d="M168 400 c-32 -25 -58 -79 -58 -121 0 -18 11 -51 25 -75 43 -74 144 -95 214 -45 56 40 78 130 46 191 -16 30 -60 70 -79 70 -6 0 4 -9 22 -20 17 -11 32 -25 32 -33 0 -7 -32 -21 -77 -34 -65 -17 -72 -21 -43 -23 26 -1 41 -9 59 -31 28 -36 21 -47 -21 -31 -18 6 -33 10 -35 8 -2 -1 13 -24 32 -49 20 -26 32 -47 26 -47 -13 0 -151 71 -151 77 0 3 9 3 19 0 46 -12 51 26 5 43 -13 5 -24 16 -24 25 0 8 -7 15 -15 15 -25 0 -17 19 24 60 42 42 41 53 -1 20z"/>
 <path d="M90 220 c0 -7 3 -10 7 -7 3 4 3 10 0 14 -4 3 -7 0 -7 -7z"/>
 <path d="M380 160 c0 -7 3 -10 7 -7 3 4 3 10 0 14 -4 3 -7 0 -7 -7z"/>
 <path d="M133 153 c4 -3 10 -3 14 0 3 4 0 7 -7 7 -7 0 -10 -3 -7 -7z"/>
 <path d="M220 110 c0 -7 3 -10 7 -7 3 4 3 10 0 14 -4 3 -7 0 -7 -7z"/>
 </g>
<g id="layer116" fill="#ccffcc" stroke="none">
 <path d="M0 275 l0 -275 255 0 255 0 0 275 0 275 -255 0 -255 0 0 -275z m348 186 c72 -37 112 -102 112 -183 -1 -147 -155 -241 -286 -175 -58 29 -76 48 -98 101 -40 96 1 207 93 256 48 25 130 26 179 1z"/>
 <path d="M233 423 c4 -3 10 -3 14 0 3 4 0 7 -7 7 -7 0 -10 -3 -7 -7z"/>
 <path d="M273 423 c4 -3 10 -3 14 0 3 4 0 7 -7 7 -7 0 -10 -3 -7 -7z"/>
 <path d="M161 391 c-32 -30 -44 -54 -14 -30 33 27 62 59 54 59 -5 0 -23 -13 -40 -29z"/>
 <path d="M364 380 c21 -32 20 -39 -1 -34 -10 3 -47 -4 -83 -15 -54 -16 -59 -20 -32 -20 23 -1 40 -9 57 -28 38 -43 33 -55 -15 -38 -45 16 -45 14 2 -46 15 -20 28 -40 28 -44 0 -4 -25 7 -55 24 -30 17 -61 31 -69 31 -7 0 -19 7 -26 15 -11 13 -8 15 20 15 36 0 37 18 2 36 -12 6 -33 23 -47 38 -14 15 -25 23 -26 19 0 -4 -3 -21 -5 -36 -11 -68 50 -149 121 -163 70 -13 148 35 170 104 11 38 -4 105 -31 137 -18 22 -21 23 -10 5z"/>
 </g>
<g id="layer117" fill="#ffffcc" stroke="none">
 <path d="M0 275 l0 -275 255 0 255 0 0 275 0 275 -255 0 -255 0 0 -275z m348 186 c72 -37 112 -102 112 -183 -1 -147 -155 -241 -286 -175 -58 29 -76 48 -98 101 -40 96 1 207 93 256 48 25 130 26 179 1z"/>
 <path d="M233 423 c4 -3 10 -3 14 0 3 4 0 7 -7 7 -7 0 -10 -3 -7 -7z"/>
 <path d="M161 391 c-32 -30 -44 -54 -14 -30 33 27 62 59 54 59 -5 0 -23 -13 -40 -29z"/>
 <path d="M364 380 c21 -32 20 -39 -1 -34 -10 3 -47 -4 -83 -15 -54 -16 -59 -20 -32 -20 23 -1 40 -9 57 -28 38 -43 33 -55 -15 -38 -45 16 -45 14 2 -46 15 -20 28 -40 28 -44 0 -4 -25 7 -55 24 -30 17 -61 31 -69 31 -7 0 -19 7 -26 15 -11 13 -8 15 20 15 36 0 37 18 2 36 -12 6 -33 23 -47 38 -14 15 -25 23 -26 19 0 -4 -3 -21 -5 -36 -11 -68 50 -149 121 -163 70 -13 148 35 170 104 11 38 -4 105 -31 137 -18 22 -21 23 -10 5z"/>
 </g>
<g id="layer118" fill="#ffffff" stroke="none">
 <path d="M0 275 l0 -275 255 0 255 0 0 275 0 275 -255 0 -255 0 0 -275z m348 186 c72 -37 112 -102 112 -183 -1 -147 -155 -241 -286 -175 -58 29 -76 48 -98 101 -40 96 1 207 93 256 48 25 130 26 179 1z"/>
 <path d="M161 390 c-33 -32 -43 -52 -14 -29 32 27 62 59 54 59 -4 0 -22 -14 -40 -30z"/>
 <path d="M364 380 c21 -32 20 -39 -1 -34 -10 3 -47 -4 -83 -15 -54 -16 -59 -20 -32 -20 23 -1 40 -9 57 -28 38 -43 33 -55 -15 -38 -45 16 -45 14 2 -46 15 -20 28 -40 28 -44 0 -3 -26 7 -57 23 -32 17 -71 36 -87 43 l-30 14 38 3 c41 4 44 20 8 38 -12 6 -33 23 -47 38 -14 15 -25 23 -26 19 0 -4 -3 -21 -5 -36 -11 -68 50 -149 121 -163 70 -13 148 35 170 104 11 38 -4 105 -31 137 -18 22 -21 23 -10 5z"/>
 </g>

</svg>